<svg id="Group_64" data-name="Group 64" xmlns="http://www.w3.org/2000/svg" xmlns:xlink="http://www.w3.org/1999/xlink" viewBox="0 0 78.458 116.146">
  <defs>
    <style>
      .cls-1 {
        fill: url(#linear-gradient);
      }

      .cls-2 {
        fill: url(#linear-gradient-2);
      }

      .cls-3 {
        fill: url(#linear-gradient-3);
      }

      .cls-4 {
        fill: url(#linear-gradient-4);
      }

      .cls-5 {
        fill: url(#linear-gradient-5);
      }

      .cls-6 {
        fill: url(#linear-gradient-6);
      }
    </style>
    <linearGradient id="linear-gradient" x1="0.5" x2="0.5" y2="1" gradientUnits="objectBoundingBox">
      <stop offset="0" stop-color="#cf34b1"/>
      <stop offset="1" stop-color="#6f00a4"/>
    </linearGradient>
    <linearGradient id="linear-gradient-2" x1="1" y1="0.797" x2="0.158" y2="0.647" xlink:href="#linear-gradient"/>
    <linearGradient id="linear-gradient-3" x1="0.624" y1="0.562" x2="0.398" y2="0.338" xlink:href="#linear-gradient"/>
    <linearGradient id="linear-gradient-4" x1="1" y1="0.813" x2="0.315" y2="0.58" xlink:href="#linear-gradient"/>
    <linearGradient id="linear-gradient-5" x1="0.854" y1="0.539" x2="0.263" y2="0.416" xlink:href="#linear-gradient"/>
    <linearGradient id="linear-gradient-6" x1="0.908" y1="0.202" x2="0.461" y2="0.526" xlink:href="#linear-gradient"/>
  </defs>
  <path id="Shape" class="cls-1" d="M7.76,0,0,7.143Z" transform="translate(16.997)"/>
  <path id="Shape-2" data-name="Shape" class="cls-2" d="M5.05,20.322,53.7,16.5,0,0Z" transform="translate(24.757)"/>
  <path id="Shape-3" data-name="Shape" class="cls-3" d="M53.824,22.539,78.334,0h0L53.824,22.539,48.774,2.217,0,6.036Z" transform="translate(0 93.606)"/>
  <path id="Shape-4" data-name="Shape" class="cls-4" d="M24.511,0h0l-7.76,7.143L0,22.663H0L30.053,49.882l5.789-4.556-6.281-25Z" transform="translate(0.246)"/>
  <path id="Shape-5" data-name="Shape" class="cls-5" d="M35.718,27.1h0L5.911,0,0,4.68,6.158,29.314l5.05,20.322Z" transform="translate(42.616 66.51)"/>
  <path id="Shape-6" data-name="Shape" class="cls-6" d="M78.334,17.859V0L3.818,59A9.132,9.132,0,0,0,0,66.14v17L74.516,25.126A9.355,9.355,0,0,0,78.334,17.859Z" transform="translate(0.124 16.504)"/>
</svg>
